<?xml version="1.0" encoding="UTF-8"?>
<svg id="Layer_2" data-name="Layer 2" xmlns="http://www.w3.org/2000/svg" viewBox="0 0 384 292.54">
  <defs>
    <style>
      .cls-1 {
        fill: #fff;
      }
    </style>
  </defs>
  <g id="Layer_1-2" data-name="Layer 1">
    <path class="cls-1" d="M384,186.01v47.25l-1.19.75c-.65.41,1.45,5,.08,7.08-2.75,4.19-7.01,7.19-11.2,10.08-25.85,17.81-53.48,31.48-83.77,41.01-6.75-8.14-11.61-16.94-16.64-25.86-1.04-1.85-2.43-3.37-4.33-5.18,2.42-3.95,6.47-5.6,11.07-7.65,5.18-2.31,12.68-5.99,17.28-8.34.32-.16.07-2.52.44-2.6l2.56-.52-6.44-5.91c-.18-.17-1.81-.38-2.05-.45-.22-.06-.08.29.08.51l1.05,1.41c-2.22.15-4.43.67-6.83,1.77-22.09,10.07-45.27,16.02-69.42,18.71-2.46.27-4.49.59-6.99.56-7.58-.09-10.25,1.87-23.8.58l-7.68-.73c-23.83-2.28-46.64-7.27-68.81-16.1l-4.35-4.69c-2.19-.63-3.61-1.13-5.47-1.92l1.89,3.03-4.8-1.93c-.95.63-3.47,2.3-4.49,3.25l-3.13,2.92c2.7,3.97,6.71,7.23,10.92,9.26l20.28,9.77c-5.97,10.31-12.56,24.46-21.44,30.48l-23.27-8.31c-1.49-1.51-3.58-4.16-5.1-5.21-1.61-.66-2.82-1.17-4.19-1.9-8.45-4.5-11.85-5.2-19.71-9.51-12.43-6.82-24.67-13.27-36.07-21.9-.95-.72-6.3-6.43-6.72-5.3l-1.75-6.39v-47.25l1.47-1.3c.43-.38-.6-2.06-.53-2.9,3.1-34.42,12.2-69.84,26.48-101.26l3.22-7.08c5.61-12.35,21.4-41.45,31.05-50.92C84.6,12.34,108.41,5.06,133.47.42c1.18-.22,2.68,1.22,2.94,2,.26.2,1.75.82,1.44,1.04l-1.02.73c1.65.68,1.87.86,1.01,1.24,2.03,3.15,3.53,5.93,5.57,9.67.99,1.81,3.92,3.79,5.37,5.5l.93,1.11c.15.18.66.04.68-.21l.1-1.38,9.08-1.22,8.29-.97c2.88-.34,5.57-.66,8.58-.54,6.53.27,11.32-2.11,24.09-.43,9.43,1.24,6.84-.21,19.25,1.36l14.77,1.86c.66.08,2.56-.31,2.61-.85l.2-2.26,5.82-10.23c1.22-2.15,4.64-3.5,5.66-6.85,20.06,3.69,39.57,8.93,58.64,16.49,1.36,1.53,3.25,4.11,4.76,4.67l4.31,1.59-1.28-3.03,5.66,4.44c3.03,2.37,6.05,5.68,8.14,9.1l11.08,18.12c.76,1.24,1.34,2.58,1.89,3.74l1.8,3.82,10.52,21.03c.81,1.63,3.96,7.8,4.17,9.7l3.96,3.34c11.62,29.97,19,61.25,21.51,92.99ZM115.7,196.98c11.49,3.46,22.79,3.25,31.95-3.4,2.6-1.89,4.75-4.31,6.88-6.62,8.58-9.29,9.68-30.63,5.97-40.88-.15-.4-.52-1.86-.17-1.96l1.9-.54c-4.67-9.72-12.81-17.9-22.62-22.06l4.2,4.42c-18.08-7.94-36.68-1.75-45.19,15.87-5.46,11.3-5.35,23.23-1.49,35.12l-2.97-1.32c2.04,8.09,17.14,23.29,24.22,24.66-1.26-1.42-2.2-2.31-2.68-3.3ZM243.15,196.94c11.99,3.76,23.6,3.05,33.06-3.99,15.51-11.55,16.94-35.11,10.18-51.84l4.06,3.67c-4.9-10.41-12.99-18.77-23.32-23.57l1.72,3.49c-15.28-4.89-29.64-1.39-38.78,10.84-9.94,13.31-10.38,30.38-3.6,45.03l-3.99-3.63c2.46,7.75,15.57,21.26,23.51,23.51-1.21-1.44-2.07-2.34-2.84-3.51Z"/>
  </g>
</svg>