<?xml version="1.0" encoding="UTF-8"?>
<svg id="Layer_2" data-name="Layer 2" xmlns="http://www.w3.org/2000/svg" viewBox="0 0 384 384">
  <defs>
    <style>
      .cls-1 {
        fill: #fff;
      }
    </style>
  </defs>
  <g id="Layer_1-2" data-name="Layer 1">
    <g>
      <path class="cls-1" d="M341.25,0l4.43,4.53-.47-3.15c2.98.35,5.13,2.39,7.51,4.53,2.62,2.36,6.57,3.82,9.46,6.15,4.06,3.25,8.36,7.16,10.98,11.55l1.87,3.14c1.29,2.16,1.84,4.63,3.92,5.98,2.18,1.42,3.43,3.8,3.56,6l-1.38-.28c-.24-.05-1.2.1-1.03.28l1.29,1.33,2.6,2.67v298.5c-2.65,10.6-7.6,19.41-15.62,27.1s-16.59,13.01-27.13,15.65H42.92l-3.51-4.62-1.11,2.22c-.28.55-2.29.15-2.73-.33l-4.56-4.98c-6.04-1.7-10.41-5.7-14.74-10.08-7.93-8.04-6.34-12.17-11.27-15.73-1.66-1.2-2.67-3.25-2.99-5.08l2.7.1-4.7-4.99V43.5c2.65-8.19,5.77-16.66,12.22-23l7.58-7.45C26.42,6.54,34.32,2.78,42.75,0h298.5ZM131.48,125.56c4.37-4.99,5.68-11.38,6.72-17.88s-1.3-12.05-3.1-18.41l3.47,3.68s.09-1.26.13-1.72c.02-.3-.79-.82-.97-1.08l-5.67-8.46c-1.15-1.71-11.5-9.95-14.39-10.01l3.7,4.17c-11.07-4.78-22.4-4.99-32.75,1.07-9.9,5.79-15.44,16.52-15.22,28.08.06,3.52.62,6.7,1.34,10.09l.38,1.79c.07.33-.87.34-1.96.61,2.34,5.7,14.78,19,21.46,20.68l-4.42-4.51c5.05,1.66,8.97,3.45,13.95,3.58,7.23.18,15.16-1.77,21.57-5.7,1.89-1.16,4.25-4.23,5.76-5.96ZM234.58,191.82c3.36.27,5.94,1.1,8.18,3.46,4.56,4.8,9.89,9.15,13.95,14.58,1.55,2.08,2.65,7.26,2.66,10.13l.23,87.01-2.49-1.65c2.21,3.56,4.75,6.17,8.08,8.63.02-1.11-.53-2.6-.06-2.59l1.89.02,37.24-.03c5.62,0,6.39-4.62,6.39-9.19l-.09-79.22c0-4.05.24-7.8-.08-11.69-.87-10.75-2.64-20.62-6.11-31.03l2.94,1.73c-3.38-12.89-17.57-26.41-29.03-31.35l4.23,4.51c-21.86-9.49-54.14-9.38-72.62,8.69l-5.31-5.51-.11-3.4-3.72-3.75-39.36.23c-2.52.01-6.88,2.47-6.88,5.52l-.05,150.63c-1.27-.92-2.02-1.49-2.63-.78l5.62,6.42c.27.31,2.33.42,2.19.03l-.61-1.71c3.18-.37,42.7-.21,41.67.09.26-.08.54-1.48.8-1.69,2.52-2.02,2.63-6.33,2.62-9.77l-.08-76.52,2.93-10.15c1.67-5.77,5.08-8.87,8.6-12.78,5.03-5.59,10.15-9.56,18.98-8.86ZM88.27,311.42l36.01-.17c6.1-.03,6.33-6.8,6.33-11.14l-.05-131.83.19-11.61,2.73,1.35c-.45-2.09-6-7.79-8.68-9.24.01,1.4.38,2.64-.08,2.61-.35-.02-1.35-.11-1.75-.11l-30.82.03c-3.89,0-9.46.33-11.11,5.01l-.05,150.67-2.65-1.47c2.48,3.31,4.63,5.47,7.75,8.33.09-1.38-.64-2.35-.22-2.36l2.41-.07Z"/>
      <path class="cls-1" d="M206.4,166.29c.35,1.5.55,3.66-2.02,5-.33-3.8-.34-6.65-.2-10.44l3.9,2.45c.41.25,1.06,1.77.78,2.1-.37.44-1.1.61-2.46.89Z"/>
    </g>
  </g>
</svg>