<?xml version="1.0" encoding="UTF-8"?>
<svg id="Layer_2" data-name="Layer 2" xmlns="http://www.w3.org/2000/svg" viewBox="0 0 954.42 699.22">
  <defs>
    <style>
      .cls-1 {
        fill: #fff;
      }
    </style>
  </defs>
  <g id="Layer_1-2" data-name="Layer 1">
    <path class="cls-1" d="M538.05,696.35c-6.55-2.01-26.52,6.36-31.24,1.12-5.98-84.49-.09-223.52-5.97-306.53-77.4,7.45-44.66,7.8-50.84,80.95-1.88,55.76,1.29,149.78-1.56,205.58-104.58-67.87-206.57-144.4-311.05-213.92-39.24-25.36-77.32-57.68-117.34-82.78-7.36-7.19-35.6-21.15-8.63-22.11,18.92-.5,37.82-5.31,56.88-7.21,90.92-10.54,182.71-22.18,273.51-32.96,12.94-1.71,27.08-2.84,39.71-5.9,11.1-7.36-25.57-335.33,22.16-307.5,8.78,1.21,41.81-11.5,42.85-.72-.36,59.55,1.95,173.84,1.43,231.45,8.2,57.04-20.26,84.15,56.56,60.65-4.53-57.25.57-211.69-2.43-274.24,13.64-5.74,31.68,20.07,46.46,26.28,96.61,68.17,194.76,136.46,292.28,203.25,36.42,26.87,77,52.94,113.56,79.95-.99,8.89-49.71,8.84-59.11,11.09-104.64,13.03-209.39,24.79-313.81,38.87-21.17-9.26-6.84,55.12-10.5,62.01-4.06,29.23-2.01,59.27-.35,88.15-2.95,4.85.6,7.3.61,11.53,0,0,.31,140.88.31,140.88-1.51,13.48-23.43,8.98-33.52,12.08ZM742.28,271.02c28.78.8-68.71-52.24-78.14-60.98-13.57-5.3-86.51-69.56-86.67-43.81.13,37.82-2.05,80.39-2.16,118.19-2.32,12.95,30.03.46,34.78,1.98,43.69-3.15,88.31-11.58,132.19-15.37ZM210.34,436.75c37.16,26.66,79.57,56.53,118.1,81.02,11.61,6.69,39.15,26.92,46.55,28.92-2.64,2.01,8.86,11.73,7.27-6.44-.89-7.8,1.14-133.28.11-137.36-27.02,1.31-40.25,5.25-69.29,10.89-26.36,1.13-50.39,7.72-76.72,9.45-11.99,2.48-53.62.55-26,13.52Z"/>
  </g>
</svg>