<?xml version="1.0" encoding="UTF-8"?>
<svg id="Layer_2" data-name="Layer 2" xmlns="http://www.w3.org/2000/svg" viewBox="0 0 382.99 272.15">
  <defs>
    <style>
      .cls-1 {
        fill: #fff;
      }
    </style>
  </defs>
  <g id="Layer_1-2" data-name="Layer 1">
    <path class="cls-1" d="M0,171.23v-69.61c.73-.46,1.55-1.19,1.48-1.87-.06-.59-.34-2.21-.34-2.85v-8.04s.71-10.49.71-10.49l.81-10.18,2.11-19.75c1.23-11.5,7.06-21.47,16.22-28.04,6.15-8.3,16.04-10.72,25.69-11.73l30.46-3.21,8.02-.78,9.76-.74,9.72-.74c3.2-.24,6.08-.77,9.28-.85l9.54-.25c4.03-.11,7.67-.93,11.75-.68,3,.19,5.69-.23,8.64-.51,5.95-.58,11.96-.39,18.02-.11,2.4.11,5.09-.75,7.37-.75L214.68,0c1.64,0,4.32,1.01,6.09.92,7.05-.33,13.7-.79,20.33.15,4.39.63,8.84.24,13.46.52l14.41.87,9.5.79,9.76.74,8.97.69,39.97,4.12c17.1,1.76,8.98,1.71,21.7,9.39,4.87,2.94,8.98,7.43,11.57,12.38,3.25,6.22,7.06,5.64,7.79,12.73l2.55,24.86.78,10.3.75,11.15.68,12.29-.08,68.83-.67,13.14-.69,9.83-.59,8.29-1.77,18.69c-1.18,12.44-5.32,23.22-15.33,30.8-1.88,1.42-3.75,3.92-5.91,5.35-4.12,2.72-8.32,5.06-13.45,5.63l-39.06,4.32-6.64.63-10.24.77-9.72.73-9.44.87-9.59.24c-3.56.09-6.79.9-10.39.69s-6.53.16-9.93.5c-5.73.57-11.54.39-17.33.1-2.66-.13-5.51.76-8.05.77l-44.89.07c-1.59,0-4.24-1.05-5.96-.97-6.66.31-13,.71-19.41.03-3.28-.34-6.4-.85-9.78-.59s-6.53-.5-9.97-.6l-10.13-.29-8.46-.87-10.48-.78-8.22-.63-40.13-4.14c-16.83-1.73-8.1-1.07-22.51-10.07-4.19-2.62-8.05-6.7-10.25-11.03-5.45-10.73-7.36-1.46-9.45-22.59l-2.05-20.78-.98-11.81c-.7-8.44.9-8.7-1.44-15.82ZM247.28,142.34l6.25-4c.74-.47,2.17-2.22,2.9-2.77l-3.55-4.02-88.92-59.31c-.32.37-.38,1.83-.8,1.72l-2.98-.81v125.39c1.69.25,3.59-.5,5.52-1.78l81.58-54.42Z"/>
  </g>
</svg>