<?xml version="1.0" encoding="UTF-8"?>
<svg id="Layer_2" data-name="Layer 2" xmlns="http://www.w3.org/2000/svg" viewBox="0 0 383.22 384">
  <defs>
    <style>
      .cls-1 {
        fill: #fff;
      }
    </style>
  </defs>
  <g id="Layer_1-2" data-name="Layer 1">
    <g>
      <path class="cls-1" d="M300.16,0c.62.96,1.88.71,3.28,1,33.57,7.12,9.46,6.24,31.75,13.36,11.31,7.1,21.67,15.3,29.02,26.6l6.09,9.36c1.53,3.71,1.77,8.78,7.03,10.62,2.87,7.39,4.29,14.55,5.89,22.85v215.84c-4.15,26.3-12.71,41.82-31.57,59.56-23.95,22.53-51.39,24.66-50.75,23.61l-.74,1.2H83.09c-1.63-2.82-.86.28-6.9-1.77-4.5-1.53-10.72-1.44-14.2-4.73-3.76-3.55-6.9-7.29-12.3-6.97-1.42-1.61-3.07-2.77-4.93-3.82-11.7-6.64-21.83-18.27-27.9-28.24-6.76-11.1.07-4.53-10.15-16.74-3.08-3.68-6.8-21.03-5.55-20.36l-1.16-.62V84l1.45-1.2c.3-.25-.62-2.04-.51-2.56,1.57-7.24,4.09-17.01,7.74-23.87,4.24-7.98,7.98-15.19,14.18-21.52l5.2-5.31c6.61-6.75,13.64-13.02,21.94-17.84,9.37-5.43,19.99-9.11,30.44-10.85.53-.09,2.28.78,2.58.35l.82-1.2h216.33ZM322.5,334.83c4.9-3.28,9.18-8.32,12.68-13.18,6.49-9.04,9.21-20.15,9.21-31.43V99.93c0-9.47.41-17.41-3.81-26.7l3.37.84c-4.08-12.15-22.36-30.68-34.76-34.59l1.78,3.69c-8.96-3.66-16.17-4.27-25.01-4.27H95.02c-10.06.01-18.92,2.29-27.76,6.95-15.46,8.14-27.97,27.44-27.99,43.7l-.27,204.94c0,6.04,3.07,11.07,3.8,16.7l-2.67-1.35c3.14,11.43,23.12,31.57,34.66,34.62l-1.9-3.63c9.13,3.97,16.7,4.29,25.75,4.29l191.06-.05c11.8,0,23.03-3.66,32.81-10.21Z"/>
      <path class="cls-1" d="M157.93,282.4c-2.95-5.06-7.4-7.6-12.29-8.01-1.76-1.55-3.57-2.79-5.53-3.95-11.67-6.93-20.81-17.11-27.68-28.36-.43-.71-1.85-2.27-2.1-3.18-1.28-4.61-3.61-10.1-8.27-12.67-3.96-9.55-5.16-19.19-6.52-29.11-.55-4.07-.26-7.69.19-11.82,1.26-11.52,3.54-22.8,8.85-33.03,4.02-7.74,8-15.16,14.08-21.39l5.56-5.7c10.51-10.79,19.57-17.65,33.8-23.35,10.26-4.11,29.51-7.49,40.04-6.07,9.56,1.3,18.98,2.49,28.08,6.12,3.12,4.79,7.7,7.47,13.2,8.58,11.41,6.93,21.48,15.38,29.05,26.55l6.16,9.09c.29,5.13,3.57,7.52,6.29,11.39,6.06,8.64,7.59,30.03,6.87,41.22-.78,12.1-3.74,23.28-8.69,34.09-5.57,12.16-13.5,21.28-23.07,30.32-15.86,14.99-35.68,23.54-57.64,25-4.63.31-8.69.6-13.37.02-9.14-1.13-17.88-2.61-27-5.73ZM213.57,245.4c4.23-1.57,8.77-3.34,12.23-5.88,5.84-4.29,11.32-9.75,15.03-16.05,9.62-16.34,10.17-36.03,4.33-54.11l2.98.49c-4.68-12.65-22.61-30.57-34.75-34.36l1.83,3.63c-18.74-7.22-38.35-5.78-55.64,4.67-6.04,3.65-11.42,9.35-15.42,15.45-11,16.79-12.02,37.15-5.29,55.84l-2.95-1.23c3.3,11.49,23.01,31.43,34.68,34.59l-1.77-3.45c14.98,5.57,29.77,5.96,44.74.4Z"/>
      <path class="cls-1" d="M284.2,114.93c-3.88-1.71-12.15-10.92-15.24-14.96-2.87-3.75-.57-10.39,2.96-13.24,3.09-2.5,4.97-4.8,7.72-7.79,2.3-2.5,9.1-3.85,12.16-1.65,5.48,3.96,10.52,8.74,14.27,14.33,2.42,3.61.74,10.59-1.95,13.32l-6.87,6.98c-3.1,3.15-8.69,4.92-13.05,3.01Z"/>
    </g>
  </g>
</svg>