<?xml version="1.0" encoding="UTF-8"?>
<svg id="Layer_2" data-name="Layer 2" xmlns="http://www.w3.org/2000/svg" viewBox="0 0 383.4 383.38">
  <defs>
    <style>
      .cls-1 {
        fill: #fff;
      }
    </style>
  </defs>
  <g id="Layer_1-2" data-name="Layer 1">
    <path class="cls-1" d="M209.74,0c17.71,3.02,35.49,5.95,52.69,13.19l4.71,4.93,13.86,6.51c19.89,9.34,36.42,23,51.31,39.15,9.81,10.64,17.48,22.1,24.71,34.51.95,1.63,1.84,3.14,2.51,4.6l2,4.31,4.22,9.42,4.51,4.31c7.32,17.22,10.48,34.93,13.14,52.72v35.93l-1.35,1.16c1.73-1.49-2.38,59.83-46.54,106.96-6.88,7.34-6.79,5.86-11.81,11.84s-11.1,10.35-17.19,15.08c-27.61,21.45-56.98,33.02-91.79,37.55-10.18,1.32-29.5,1.58-39.9.64-18.44-1.67-35.87-6.1-52.97-12.54l-4.64-5.13-14.36-6.77c-19.53-9.21-35.84-22.66-50.48-38.53-9.57-10.38-17.16-21.44-24.31-33.54-1.99-3.36-3.76-6.55-5.38-10.26l-4.11-9.45-5.02-4.74c-6.6-17.27-11.1-34.69-12.95-53.3-1.02-10.32-.7-29.14.67-39.13,2.55-18.59,6.92-36.32,14.62-53.17l2.38-5.22c6.36-13.93,20.28-35.17,31.25-45.95l8.31-8.16c2.56-2.51,4.82-5.63,7.67-8.03,22.13-18.62,33.62-26.57,60.96-37.45,13.87-5.52,29.97-8.76,44.56-10.6.64-.08,2.47.89,2.75.43l.78-1.27h35.18ZM272.95,166.57l4.65,4.94,12.32,5.76c3.27,1.53,8.21,4.42,8.43,3.73l.54-1.71c5.15,1.59,11.28,3.31,16.32.03,2.66-1.74,5.83-4.99,7.19-7.93,1.88-4.08.5-8.94.32-13.29l2.47.64c-4.24-10.19-21.94-18.56-32.27-22.55l-5.17-2c.48.78,1.15,2.12,1.4,3.28-29.28-11.52-59.1-18.06-90.17-20.67-3.64-.31-7.44-.85-10.97-.84l-43.27.13c-2.43,0-5.64.4-8.34.59-18.37,1.28-42.25,5.02-59.53,11.26-2.46.89-5.84,4.43-6.81,6.68-.87,2.01-1.73,5.69-1.52,7.48l1.07,7.65-3.06-2.18c2.85,5.3,6.75,9.69,12.24,12.35l-1.62-2.83c5.17,1.7,8.88,2.26,13.82.85,12.75-3.64,25.4-6.29,38.7-7.73l8.07-.87c13.05-1.41,36.62-1.54,49.6-.54,28.91,2.23,58.49,7.12,85.6,17.81ZM266.88,231.63c4.61,2.2,8.38,4.99,13.18,6.43l-3.1-3.15c11.65,2.59,12.72,2.16,20.37-5.71,1.08-4.54.35-8.64-.14-13.8l2.84,3.01c-1.65-4.7-3.87-7.19-7.18-9.32l-7.42-4.78c-9.36-6.03-12.24-6.37-21.19-10.14l-5.67-2.39c.43.84,1.06,2.18,1.44,3.28-25.09-9.11-50-15.2-76.41-17.07-3.03-.21-6.23-.68-9.05-.66l-24.55.13-6.99.52c-18.43,1.37-36.43,4.24-53.95,9.9-5.35,1.73-8.63,7.32-8.11,12.65l.59,6.12-1.96-1.36c1.46,4.58,5.64,8.08,10.2,10.48l-.36-2.42c2.2.28,5.15.89,7.22.35,11.63-3.05,22.65-6.03,34.64-7.28l8.85-.92,7.55-.82c9.46-1.03,18.66-.55,28.05.13,25.19,1.83,49.65,6.37,73.22,15.65l4.33,4.7,13.62,6.48ZM247.64,278.84l9.68,5.24c.56.3,2.02.95,2.71,1.23.42.18.28-1.46.46-1.88,3.51.86,7.29,1.03,10.08-1.07l4.6-3.45c.44-3.67.12-7.31-.47-10.83l2.69.34c-5.84-9.42-22.21-16.64-32.37-20.92.73,1.64,1.14,2.48,1.56,3.79-22.93-9.38-46-14.03-70.18-15.48-8.91-.53-15.02-.1-23.55.36l-13.47.72c-13.95.74-27.1,3.74-40.74,6.37-3.65.7-7.17,2.64-8.7,5.11-2.15,3.47-1.69,6.9-.97,10.73l-2.87-1.38c2.14,3.31,5.09,6.38,8.07,8.89,1.39-2.23,3.15-1,4.76-1.32,14.26-2.79,28.16-5.2,42.67-6.85l5.56-.63c4.95-.56,10.22-.03,15.29-.34,2.07-.13,3.62-.09,5.65-.03l13.58.43c18.13.57,35.97,5.06,52.71,12.29,4.04,5.69,7.01,5.3,13.24,8.67Z"/>
  </g>
</svg>